<svg width="16" height="16" viewBox="0 0 16 16" fill="none" xmlns="http://www.w3.org/2000/svg">
<path d="M8 0C5.829 0 5.556 0.00954325 4.703 0.0458076C3.85 0.0839806 3.269 0.21186 2.76 0.400816C2.22609 0.592463 1.74249 0.893082 1.343 1.28166C0.936076 1.6631 0.621107 2.12456 0.42 2.63394C0.222 3.11873 0.087 3.67415 0.048 4.48533C0.01 5.30127 0 5.56085 0 7.63555C0 9.70834 0.01 9.96792 0.048 10.782C0.088 11.595 0.222 12.1495 0.42 12.6353C0.625 13.1372 0.898 13.5629 1.343 13.9875C1.787 14.4122 2.233 14.6737 2.759 14.8684C3.269 15.0573 3.849 15.1862 4.701 15.2234C5.555 15.2597 5.827 15.2692 8 15.2692C10.173 15.2692 10.444 15.2597 11.298 15.2234C12.149 15.1852 12.732 15.0573 13.241 14.8684C13.7746 14.6766 14.2578 14.376 14.657 13.9875C15.102 13.5629 15.375 13.1372 15.58 12.6353C15.777 12.1495 15.912 11.595 15.952 10.782C15.99 9.96792 16 9.70834 16 7.6346C16 5.56085 15.99 5.30127 15.952 4.48628C15.912 3.67415 15.777 3.11873 15.58 2.63394C15.3789 2.12454 15.0639 1.66308 14.657 1.28166C14.2576 0.892938 13.774 0.592297 13.24 0.400816C12.73 0.21186 12.148 0.0830262 11.297 0.0458076C10.443 0.00954325 10.172 0 7.998 0H8.001H8ZM7.283 1.37614H8.001C10.137 1.37614 10.39 1.38282 11.233 1.42004C12.013 1.45344 12.437 1.57845 12.719 1.68247C13.092 1.82085 13.359 1.9869 13.639 2.25411C13.919 2.52133 14.092 2.77518 14.237 3.13209C14.347 3.40026 14.477 3.80489 14.512 4.54927C14.551 5.35376 14.559 5.59521 14.559 7.63269C14.559 9.67017 14.551 9.91257 14.512 10.7171C14.477 11.4614 14.346 11.8651 14.237 12.1342C14.1087 12.4657 13.904 12.7655 13.638 13.0113C13.358 13.2785 13.092 13.4436 12.718 13.5819C12.438 13.6869 12.014 13.811 11.233 13.8453C10.39 13.8816 10.137 13.8902 8.001 13.8902C5.865 13.8902 5.611 13.8816 4.768 13.8453C3.988 13.811 3.565 13.6869 3.283 13.5819C2.9355 13.4597 2.62113 13.2647 2.363 13.0113C2.09675 12.7651 1.89172 12.4651 1.763 12.1333C1.654 11.8651 1.523 11.4605 1.488 10.7161C1.45 9.91162 1.442 9.67017 1.442 7.63078C1.442 5.59234 1.45 5.35185 1.488 4.54736C1.524 3.80298 1.654 3.39835 1.764 3.12923C1.909 2.77327 2.083 2.51846 2.363 2.25125C2.643 1.98404 2.909 1.81894 3.283 1.68057C3.565 1.57559 3.988 1.45153 4.768 1.41717C5.506 1.38472 5.792 1.37518 7.283 1.37423V1.37614ZM12.271 2.64348C12.1449 2.64348 12.0201 2.66718 11.9036 2.71322C11.7872 2.75926 11.6813 2.82674 11.5922 2.91181C11.503 2.99689 11.4323 3.09788 11.3841 3.20903C11.3358 3.32019 11.311 3.43932 11.311 3.55963C11.311 3.67994 11.3358 3.79907 11.3841 3.91023C11.4323 4.02138 11.503 4.12238 11.5922 4.20745C11.6813 4.29252 11.7872 4.36 11.9036 4.40604C12.0201 4.45209 12.1449 4.47578 12.271 4.47578C12.5256 4.47578 12.7698 4.37926 12.9498 4.20745C13.1299 4.03564 13.231 3.80261 13.231 3.55963C13.231 3.31665 13.1299 3.08363 12.9498 2.91181C12.7698 2.74 12.5256 2.64348 12.271 2.64348ZM8.001 3.71423C7.45607 3.70612 6.91489 3.80154 6.40898 3.99494C5.90306 4.18834 5.44251 4.47585 5.05415 4.84074C4.66579 5.20563 4.35736 5.6406 4.14684 6.12033C3.93632 6.60006 3.8279 7.11497 3.8279 7.63507C3.8279 8.15518 3.93632 8.67008 4.14684 9.14982C4.35736 9.62955 4.66579 10.0645 5.05415 10.4294C5.44251 10.7943 5.90306 11.0818 6.40898 11.2752C6.91489 11.4686 7.45607 11.564 8.001 11.5559C9.07954 11.5399 10.1082 11.1197 10.865 10.3862C11.6217 9.6526 12.0459 8.66448 12.0459 7.63507C12.0459 6.60567 11.6217 5.61755 10.865 4.88399C10.1082 4.15044 9.07954 3.73029 8.001 3.71423ZM8.001 5.08941C8.70833 5.08941 9.38669 5.35757 9.88685 5.83488C10.387 6.31219 10.668 6.95957 10.668 7.6346C10.668 8.30962 10.387 8.957 9.88685 9.43431C9.38669 9.91163 8.70833 10.1798 8.001 10.1798C7.29367 10.1798 6.61531 9.91163 6.11515 9.43431C5.61499 8.957 5.334 8.30962 5.334 7.6346C5.334 6.95957 5.61499 6.31219 6.11515 5.83488C6.61531 5.35757 7.29367 5.08941 8.001 5.08941Z" fill="#BF1313"/>
</svg>
