<svg width="15" height="15" viewBox="0 0 15 15" fill="none" xmlns="http://www.w3.org/2000/svg">
<path d="M0.843489 5.39635L4.96371 1.08449C5.62559 0.391827 6.54195 0 7.5 0C8.45805 0 9.37441 0.391828 10.0363 1.08449L14.1565 5.39635C14.6979 5.96291 15 6.71637 15 7.5C15 8.28363 14.6979 9.03709 14.1565 9.60365L10.0363 13.9155C9.37441 14.6082 8.45805 15 7.5 15C6.54195 15 5.62559 14.6082 4.96371 13.9155L0.843489 9.60365C0.302112 9.03709 0 8.28363 0 7.5C0 6.71637 0.302112 5.96291 0.843489 5.39635Z" fill="#BF1313"/>
</svg>
