<svg width="10" height="10" viewBox="0 0 10 10" fill="none" xmlns="http://www.w3.org/2000/svg">
<path d="M0.562326 3.59757L3.30914 0.722991C3.75039 0.261218 4.3613 0 5 0C5.6387 0 6.24961 0.261218 6.69086 0.722991L9.43767 3.59757C9.79859 3.97527 10 4.47758 10 5C10 5.52242 9.79859 6.02473 9.43767 6.40243L6.69086 9.27701C6.24961 9.73878 5.6387 10 5 10C4.3613 10 3.75039 9.73878 3.30914 9.27701L0.562326 6.40243C0.201408 6.02473 0 5.52242 0 5C0 4.47758 0.201408 3.97527 0.562326 3.59757Z" fill="#BF1313"/>
</svg>
