<svg width="24" height="20" fill="none" xmlns="http://www.w3.org/2000/svg"><path d="M20.3173 2.36056c-1.5563-.7142-3.1984-1.22394-4.8855-1.5165a.075156.075156 0 0 0-.045.006364.07455.07455 0 0 0-.033.031135c-.2115.375001-.4455.865501-.609 1.249501a18.285078 18.285078 0 0 0-5.48704 0 12.384698 12.384698 0 0 0-.618-1.249501.076467.076467 0 0 0-.03318-.03084.07649.07649 0 0 0-.04481-.006659c-1.6875.291-3.33001.801-4.88551 1.5165a.061505.061505 0 0 0-.0315.027C.533765 7.03606-.319735 11.5706.098765 16.0481c.0015.021.015.042.0315.0555 1.811585 1.3419 3.837885 2.3664 5.992495 3.03.01522.0048.03156.0046.04667-.0005.01511-.0052.02818-.015.03734-.028.462-.63.87299-1.2945 1.22699-1.9935a.075145.075145 0 0 0 .00721-.0468c-.00271-.0159-.01049-.0306-.0222-.0417a.07461.07461 0 0 0-.02701-.0165 13.319685 13.319685 0 0 1-1.872-.8925.07509.07509 0 0 1-.03479-.0435c-.00559-.0185-.00387-.0383.0048-.0555.0051-.0112.01282-.021.02249-.0285.126-.0945.25201-.1935.372-.2925.01061-.0086.02332-.014.0368-.0159.01348-.0018.0272 0 .0397.0054 3.92851 1.794 8.18104 1.794 12.06154 0 .0129-.0057.0272-.0076.0412-.0058.014.0019.0272.0075.0383.0163.12.099.246.198.372.2925.0102.0074.0184.0173.0238.0287.0055.0114.008.024.0074.0366-.0005.0127-.0043.0249-.0108.0358a.077547.077547 0 0 1-.0264.0264c-.5985.3488-1.2252.6469-1.8735.891a.073073.073073 0 0 0-.0275.0175.073073.073073 0 0 0-.0175.0275c-.0035.01-.0049.0206-.0041.0312.0008.0105.0037.0209.0086.0303.36.6975.7725 1.3635 1.2255 1.9935.0091.013.0222.0228.0373.028.0151.0051.0315.0053.0467.0005a19.854866 19.854866 0 0 0 6.0015-3.03c.009-.0063.0166-.0146.0221-.0242a.074944.074944 0 0 0 .0094-.0313c.501-5.1765-.8385-9.67354-3.549-13.65904-.0028-.00658-.0068-.01252-.012-.01743-.0052-.00491-.0113-.00868-.018-.01107ZM8.02027 13.3211c-1.1835 0-2.157-1.086-2.157-2.418 0-1.33354.9555-2.41954 2.157-2.41954 1.2105 0 2.17503 1.095 2.15703 2.41954 0 1.332-.95553 2.418-2.15703 2.418Zm7.97403 0c-1.182 0-2.157-1.086-2.157-2.418 0-1.33354.9555-2.41954 2.157-2.41954 1.2105 0 2.1765 1.095 2.157 2.41954 0 1.332-.9465 2.418-2.157 2.418Z" fill="#5462EA"/></svg>