<svg width="24" height="24" fill="none" xmlns="http://www.w3.org/2000/svg"><path d="M12 0C8.7435 0 8.334.015 7.0545.072 5.775.132 4.9035.333 4.14.63a5.875529 5.875529 0 0 0-2.1255 1.3845A5.890412 5.890412 0 0 0 .63 4.14C.333 4.902.1305 5.775.072 7.05.015 8.3325 0 8.7405 0 12.0015c0 3.258.015 3.666.072 4.9455.06 1.278.261 2.1495.558 2.913.3075.789.717 1.458 1.3845 2.1255.666.6675 1.335 1.0785 2.124 1.3845.765.297 1.635.4995 2.913.558C8.3325 23.985 8.7405 24 12 24s3.666-.015 4.947-.072c1.2765-.06 2.151-.261 2.9145-.558a5.875101 5.875101 0 0 0 2.124-1.3845c.6675-.6675 1.077-1.3365 1.3845-2.1255.2955-.7635.498-1.635.558-2.913.057-1.2795.072-1.6875.072-4.947s-.015-3.6675-.072-4.9485c-.06-1.2765-.2625-2.1495-.558-2.9115-.3016-.80066-.7741-1.52599-1.3845-2.1255C21.3864 1.40351 20.661.930968 19.86.63c-.765-.297-1.638-.4995-2.9145-.558C15.6645.015 15.258 0 11.997 0h.0045H12Zm-1.0755 2.163h1.077c3.204 0 3.5835.0105 4.848.069 1.17.0525 1.806.249 2.229.4125.5595.2175.96.4785 1.38.8985.42.42.6795.819.897 1.38.165.4215.36 1.0575.4125 2.2275.0585 1.2645.0705 1.644.0705 4.8465 0 3.2025-.012 3.5835-.0705 4.848-.0525 1.17-.249 1.8045-.4125 2.2275-.1924.521-.4995.9922-.8985 1.3785-.42.42-.819.6795-1.38.897-.42.165-1.056.36-2.2275.414-1.2645.057-1.644.0705-4.848.0705-3.204 0-3.585-.0135-4.8495-.0705-1.17-.054-1.8045-.249-2.2275-.414a3.716397 3.716397 0 0 1-1.38-.897c-.39937-.3869-.70692-.8585-.9-1.38-.1635-.4215-.36-1.0575-.4125-2.2275-.057-1.2645-.069-1.644-.069-4.8495 0-3.204.012-3.582.069-4.8465.054-1.17.249-1.806.414-2.229.2175-.5595.4785-.96.8985-1.38.42-.42.819-.6795 1.38-.897.423-.165 1.0575-.36 2.2275-.414 1.107-.051 1.536-.066 3.7725-.0675v.003Zm7.482 1.992c-.1891 0-.3764.03725-.5511.10961a1.43964 1.43964 0 0 0-.4671.31216c-.1338.13371-.2398.29246-.3122.46717-.0724.1747-.1096.36196-.1096.55106s.0372.37635.1096.55106c.0724.17471.1784.33346.3122.46717.1337.13372.2924.23979.4671.31216.1747.07236.362.10961.5511.10961.3819 0 .7482-.15171 1.0182-.42177.2701-.27005.4218-.63632.4218-1.01823 0-.38191-.1517-.74818-.4218-1.01823-.27-.27006-.6363-.42177-1.0182-.42177Zm-6.405 1.683c-.8174-.01275-1.6292.13723-2.38803.44121a6.163446 6.163446 0 0 0-2.03224 1.32942 6.16358 6.16358 0 0 0-1.36097 2.01126 6.163572 6.163572 0 0 0-.47841 2.38081c0 .8175.16263 1.6269.47841 2.3809.31579.754.77842 1.4377 1.36097 2.0113a6.16402 6.16402 0 0 0 2.03224 1.3294c.75883.304 1.57063.454 2.38803.4412 1.6178-.0252 3.1608-.6856 4.296-1.8386 1.1351-1.153 1.7714-2.7061 1.7714-4.3242 0-1.618-.6363-3.17108-1.7714-4.32408-1.1352-1.15299-2.6782-1.81338-4.296-1.83862Zm0 2.1615c1.061 0 2.0785.42148 2.8288 1.17172C15.5805 9.92146 16.002 10.939 16.002 12c0 1.061-.4215 2.0785-1.1717 2.8288-.7503.7502-1.7678 1.1717-2.8288 1.1717-1.061 0-2.07854-.4215-2.82878-1.1717C8.42248 14.0785 8.001 13.061 8.001 12c0-1.061.42148-2.07854 1.17172-2.82878.75024-.75024 1.76778-1.17172 2.82878-1.17172Z" fill="url(#a)"/><defs><linearGradient id="a" x1="12" y1="0" x2="12" y2="24" gradientUnits="userSpaceOnUse"><stop stop-color="#B834B4"/><stop offset=".505208" stop-color="#B22E88"/><stop offset="1" stop-color="#F59636"/></linearGradient></defs></svg>