<svg width="24" height="20" fill="none" xmlns="http://www.w3.org/2000/svg"><path d="M7.539 19.5001c9.057 0 14.0115-7.5045 14.0115-14.00104 0-.21 0-.423-.009-.633A10.027075 10.027075 0 0 0 24 2.31306c-.901.39728-1.8559.65911-2.8335.777 1.0298-.61554 1.8011-1.58404 2.1705-2.725497-.9675.573186-2.0265.975557-3.1305 1.189497C19.4643.763599 18.4821.23994 17.4121.0642c-1.07-.175741-2.168.006245-3.1241.517769-.9561.511521-1.7168 1.324041-2.1643 2.311681-.4476.98765-.5569 2.09531-.3112 3.15141a13.987568 13.987568 0 0 1-5.62194-1.49288A13.987544 13.987544 0 0 1 1.662.901563C1.03401 1.98619.842361 3.26916 1.12597 4.48996c.28361 1.2208 1.02121 2.2879 2.06303 2.9846a4.984437 4.984437 0 0 1-2.229-.612v.0675c.001346 1.13622.39496 2.23713 1.11431 3.11664.71935.8795 1.72031 1.4837 2.83369 1.7104-.42261.1164-.85916.1744-1.2975.1725-.30902.0009-.61743-.0277-.921-.0855.31468.978.92741 1.8332 1.75237 2.4457.82496.6124 1.82083.9515 2.84813.9698-1.74517 1.3707-3.9009 2.1141-6.12 2.1105-.391019.0016-.781765-.0209-1.17-.0675 2.25227 1.4359 4.86795 2.1983 7.539 2.1975Z" fill="#43BDEF"/></svg>