<svg width="24" height="17" fill="none" xmlns="http://www.w3.org/2000/svg"><path d="M12.0765 0h.1335c1.233.004476 7.4805.049232 9.165.499773.5092.137503.9733.405521 1.3457.777267.3725.37176.6403.83422.7768 1.34118.1515.5669.258 1.31731.33 2.09158l.015.15516.033.38788.012.15515c.0975 1.36356.1095 2.6406.111 2.91957v.11189c-.0015.28943-.015 1.65295-.123 3.07325l-.012.1566-.0135.1552c-.075.8533-.186 1.7007-.3525 2.3243-.136.5072-.4037.9698-.7763 1.3417-.3725.3718-.8368.6397-1.3462.7767-1.74.4655-8.3535.4983-9.27.4998h-.213c-.4635 0-2.3805-.0089-4.3905-.0776l-.255-.0089-.1305-.006-.2565-.0104-.2565-.0105c-1.665-.0731-3.2505-.1909-3.981-.3878-.50927-.137-.9734-.4047-1.34591-.7762-.372515-.3715-.64032-.8339-.77659-1.3408-.1665-.6221-.2775-1.471-.3525-2.3243l-.012-.1567-.012-.1551A46.592453 46.592453 0 0 1 0 8.47526v-.1835c.003-.32075.015-1.4292.096-2.65253l.0105-.15366.0045-.07758.012-.15515.033-.38788.015-.15516c.072-.77427.1785-1.52617.33-2.09158.13604-.50717.403743-.96985.77627-1.34166C1.6498.904744 2.11405.636864 2.6235.499773 3.354.305832 4.9395.186482 6.6045.111889l.255-.010443.258-.00895.129-.004476.2565-.010443a150.497068 150.497068 0 0 1 4.284-.076085h.2895V0ZM9.6 4.78887v7.18783l6.2355-3.59244L9.6 4.78887Z" fill="red"/></svg>